#!OML:ASF I:\Actors\actors\Patient Classification 2\Patient 1\Session 1\actor1.ASF
:FULLY-SPECIFIED
:DEGREES
643
root 0.282526 18.7913 4.77397 11.8045 11.6316 3.51841
lowerback 22.4976 -0.917515 13.385
upperback 4.22234 2.72657 7.83188
thorax -7.68363 1.09658 0.305256
lowerneck -9.33729 -9.59319 -9.2339
upperneck 28.4178 -11.0097 -1.9593
head 11.1984 -6.05757 -0.532523
rclavicle -6.36111e-015 8.5875e-014
rhumerus -25.5121 3.47922 -55.8416
rradius 98.5546
rwrist -7.95965
rhand -19.4821 324.655
rfingers 7.12502
rthumb 6.83977 -65.2144
lclavicle -6.36111e-015 8.5875e-014
lhumerus 23.6217 -40.1228 37.109
lradius 98.7402
lwrist 21.811
lhand 1.87276 3.02327
lfingers 7.12502
lthumb 27.3829 31.0537
rfemur -3.88143 -4.13049 7.02194
rtibia -1.27222e-014
rfoot -18.2749 -19.2044
rtoes -8.81593
lfemur -23.9762 -5.27116 -19.2882
ltibia 26.9376
lfoot -13.5645 0.893632
ltoes -54.7385
644
root 0.290331 18.7908 4.7657 11.8071 11.9609 3.54826
lowerback 22.4771 -0.839053 13.5954
upperback 4.19933 2.89746 8.02352
thorax -7.68494 1.17493 0.357544
lowerneck -9.28108 -9.69346 -9.44644
upperneck 28.2702 -11.1109 -1.95986
head 11.1525 -6.12179 -0.506866
rclavicle 3.49861e-014 4.13472e-014
rhumerus -25.4497 3.51331 -56.8482
rradius 97.7705
rwrist -7.96311
rhand -18.9668 325.172
rfingers 7.12502
rthumb 7.33723 -64.6813
lclavicle 3.49861e-014 4.13472e-014
lhumerus 23.1595 -40.3347 36.9332
lradius 98.0173
lwrist 21.5049
lhand 2.04828 3.13173
lfingers 7.12502
lthumb 27.5508 31.1356
rfemur -3.78575 -4.45862 6.99224
rtibia 3.97569e-015
rfoot -18.3697 -19.033
rtoes -7.96598
lfemur -24.0789 -4.91419 -19.426
ltibia 26.9959
lfoot -13.3996 0.468859
ltoes -54.9758
645
root 0.296498 18.7905 4.76174 11.7663 12.2749 3.5845
lowerback 22.4123 -0.686895 13.8085
upperback 4.16393 3.15463 8.19945
thorax -7.66812 1.2942 0.367501
lowerneck -9.17594 -9.87894 -9.7451
upperneck 28.1976 -11.3664 -1.79298
head 11.1499 -6.2443 -0.430673
rclavicle 1.27222e-014 -3.49861e-014
rhumerus -25.3609 3.61655 -57.9275
rradius 96.9107
rwrist -8.28407
rhand -18.4685 325.477
rfingers 7.12502
rthumb 7.81814 -64.3583
lclavicle 1.27222e-014 -3.49861e-014
lhumerus 22.7146 -40.4516 36.7003
lradius 97.3838
lwrist 21.2875
lhand 2.27493 3.28343
lfingers 7.12502
lthumb 27.7675 31.2525
rfemur -3.62651 -4.76082 6.9623
rtibia 1.03368e-014
rfoot -18.4106 -18.8971
rtoes -7.40842
lfemur -24.0779 -4.51173 -19.5723
ltibia 26.9933
lfoot -13.2774 -0.00166804
ltoes -55.1626
646
root 0.295837 18.79 4.76674 11.5453 12.562 3.66084
lowerback 22.39 -0.504213 13.9125
upperback 4.19199 3.42187 8.34967
thorax -7.60567 1.42486 0.404392
lowerneck -9.09038 -10.1103 -9.91226
upperneck 28.1678 -11.6888 -1.71078
head 11.1554 -6.39315 -0.415988
rclavicle -6.36111e-015 1.27222e-014
rhumerus -25.0878 3.8255 -59.1929
rradius 96.0229
rwrist -9.12496
rhand -18.3022 324.975
rfingers 7.12502
rthumb 7.97865 -64.854
lclavicle -6.36111e-015 1.27222e-014
lhumerus 22.3628 -40.2865 36.1566
lradius 96.9149
lwrist 21.4817
lhand 2.63453 3.14656
lfingers 7.12502
lthumb 28.1113 31.0597
rfemur -3.2318 -4.9968 6.9048
rtibia 3.18055e-015
rfoot -18.4958 -18.7709
rtoes -7.0605
lfemur -23.8457 -4.15469 -19.7323
ltibia 27.0395
lfoot -13.2665 -0.518336
ltoes -55.0788
647
root 0.289659 18.7886 4.78217 11.0745 12.8633 3.79556
lowerback 22.4744 -0.369459 13.8779
upperback 4.28372 3.60859 8.50228
thorax -7.5445 1.52313 0.539645
lowerneck -9.00093 -10.2868 -9.99509
upperneck 28.1793 -11.9085 -1.78341
head 11.155 -6.50583 -0.455223
rclavicle -1.90833e-014 -9.54166e-014
rhumerus -24.3996 4.22547 -60.6627
rradius 95.0096
rwrist -9.92888
rhand -18.0528 324.319
rfingers 7.12502
rthumb 8.21939 -65.5015
lclavicle -1.90833e-014 -9.54166e-014
lhumerus 21.8379 -39.9588 35.5978
lradius 96.6152
lwrist 21.4999
lhand 2.8295 2.99526
lfingers 7.12502
lthumb 28.2976 30.8776
rfemur -2.50112 -5.19326 6.78519
rtibia 5.56597e-015
rfoot -18.6974 -18.54
rtoes -6.16708
lfemur -23.2246 -3.77867 -19.9385
ltibia 26.9699
lfoot -13.1674 -1.15025
ltoes -54.8651
648
root 0.328121 18.779 4.7456 11.5665 12.2158 3.72685
lowerback 22.0299 0.0958896 14.2507
upperback 4.10959 4.21241 8.43833
thorax -7.4192 1.79734 0.11145
lowerneck -8.89528 -10.4267 -10.0867
upperneck 28.2403 -12.0849 -1.82823
head 11.171 -6.59745 -0.478136
rclavicle -1.90833e-014 -1.08139e-013
rhumerus -23.45 4.81571 -62.2333
rradius 94.0579
rwrist -10.3931
rhand -17.6854 324.014
rfingers 7.12502
rthumb 8.57394 -65.7915
lclavicle -1.90833e-014 -1.08139e-013
lhumerus 21.3408 -39.5661 34.8923
lradius 96.503
lwrist 21.4343
lhand 3.17059 3.14003
lfingers 7.12502
lthumb 28.6236 30.9679
rfemur -3.50447 -4.71014 6.58972
rtibia 2.94201e-014
rfoot -18.2504 -18.8542
rtoes -6.30834
lfemur -23.8735 -3.51774 -20.0871
ltibia 26.8689
lfoot -13.0141 -0.671314
ltoes -54.7719
649
root 0.31393 18.7838 4.77963 11.1585 12.7042 3.95685
lowerback 21.7355 0.219505 14.0831
upperback 4.13526 4.27919 8.50304
thorax -7.24605 1.84715 0.260968
lowerneck -8.81001 -10.5895 -10.1941
upperneck 28.3598 -12.3291 -1.72967
head 11.2275 -6.70483 -0.461321
rclavicle 1.90833e-014 4.13472e-014
rhumerus -22.5202 5.53261 -63.8425
rradius 93.6413
rwrist -10.9406
rhand -16.0969 322.736
rfingers 7.12502
rthumb 10.1067 -67.0013
lclavicle 1.90833e-014 4.13472e-014
lhumerus 21.041 -39.0501 33.8674
lradius 96.6453
lwrist 21.4428
lhand 3.79566 3.50882
lfingers 7.12502
lthumb 29.2206 31.2344
rfemur -2.65572 -5.10091 6.46769
rtibia 4.77083e-015
rfoot -18.4835 -18.5806
rtoes -5.46486
lfemur -23.1863 -3.01808 -20.3458
ltibia 26.7024
lfoot -12.8214 -1.61457
ltoes -54.806
650
root 0.308234 18.7856 4.80427 10.7323 12.8619 4.09049
lowerback 21.5544 0.41411 13.917
upperback 4.16993 4.45027 8.49381
thorax -7.10742 1.94198 0.29869
lowerneck -8.7826 -10.741 -10.1285
upperneck 28.4708 -12.5666 -1.70531
head 11.2716 -6.80074 -0.497986
rclavicle -1.59028e-015 -8.26944e-014
rhumerus -21.573 6.41127 -65.4199
rradius 93.9538
rwrist -11.7199
rhand -16.8095 324.06
rfingers 7.12502
rthumb 9.41914 -65.7094
lclavicle -1.59028e-015 -8.26944e-014
lhumerus 20.7956 -38.3134 32.6177
lradius 97.0635
lwrist 21.5183
lhand 4.19245 3.83588
lfingers 7.12502
lthumb 29.5994 31.4949
rfemur -1.98416 -5.16205 6.35443
rtibia -7.95139e-015
rfoot -18.6114 -18.4305
rtoes -5.07412
lfemur -22.5263 -2.62801 -20.5208
ltibia 26.5731
lfoot -12.748 -2.12423
ltoes -54.8309
651
root 0.309365 18.7854 4.82016 10.3283 12.7381 4.12192
lowerback 21.4439 0.660576 13.6928
upperback 4.18685 4.68765 8.4479
thorax -7.02299 2.0644 0.309268
lowerneck -8.6935 -10.8258 -9.90428
upperneck 28.4735 -12.7354 -1.72951
head 11.2404 -6.85726 -0.556478
rclavicle -6.36111e-014 -1.59028e-014
rhumerus -20.6616 7.44816 -66.8137
rradius 94.9472
rwrist -12.3102
rhand -16.6835 324.523
rfingers 7.12502
rthumb 9.54074 -65.2408
lclavicle -6.36111e-014 -1.59028e-014
lhumerus 20.514 -37.3517 31.1797
lradius 97.7721
lwrist 21.8186
lhand 4.58358 3.99299
lfingers 7.12502
lthumb 29.9727 31.5852
rfemur -1.51503 -4.94943 6.27837
rtibia -1.74931e-014
rfoot -18.7272 -18.3716
rtoes -4.67308
lfemur -21.8867 -2.42259 -20.5912
ltibia 26.3576
lfoot -12.7217 -2.19151
ltoes -54.7781
652
root 0.31209 18.7855 4.83398 9.94267 12.5203 4.09787
lowerback 21.3903 0.909084 13.363
upperback 4.14565 4.92768 8.42265
thorax -7.04699 2.1829 0.397719
lowerneck -8.52533 -10.8387 -9.82355
upperneck 28.4418 -12.8173 -1.62804
head 11.1986 -6.87649 -0.531747
rclavicle 6.36111e-015 3.81667e-014
rhumerus -19.8105 8.58216 -67.8374
rradius 96.3396
rwrist -12.631
rhand -16.556 325.022
rfingers 7.12502
rthumb 9.66377 -64.7368
lclavicle 6.36111e-015 3.81667e-014
lhumerus 20.0725 -36.2222 29.807
lradius 98.6906
lwrist 22.2096
lhand 5.11848 3.89873
lfingers 7.12502
lthumb 30.483 31.3975
rfemur -1.13294 -4.64464 6.24759
rtibia 1.27222e-014
rfoot -18.8092 -18.382
rtoes -4.39737
lfemur -21.32 -2.31999 -20.5973
ltibia 26.2215
lfoot -12.8029 -2.10651
ltoes -54.778
653
root 0.316308 18.7848 4.85312 9.53142 12.1852 4.0583
lowerback 21.288 1.18121 12.9326
upperback 4.1404 5.16304 8.41362
thorax -7.01791 2.3057 0.561751
lowerneck -8.45055 -10.8615 -9.92795
upperneck 28.468 -12.899 -1.41688
head 11.2222 -6.90114 -0.45066
rclavicle -2.38542e-014 -6.36111e-015
rhumerus -18.8411 9.76716 -68.4915
rradius 97.6102
rwrist -12.8141
rhand -17.4936 326.281
rfingers 7.12502
rthumb 8.75906 -63.5174
lclavicle -2.38542e-014 -6.36111e-015
lhumerus 19.6549 -34.8912 28.5686
lradius 99.6676
lwrist 22.5021
lhand 5.76347 3.65275
lfingers 7.12502
lthumb 31.0979 31.0355
rfemur -0.751997 -4.21884 6.22209
rtibia -8.74653e-015
rfoot -18.7931 -18.4455
rtoes -4.76795
lfemur -20.7109 -2.26011 -20.5904
ltibia 26.1461
lfoot -12.9895 -1.91977
ltoes -54.797
654
root 0.320748 18.7839 4.87558 9.15699 11.8864 3.98817
lowerback 21.0398 1.39386 12.6647
upperback 4.1376 5.31643 8.26227
thorax -6.8856 2.38998 0.509084
lowerneck -8.4046 -10.9034 -9.97966
upperneck 28.5215 -13.0494 -1.08541
head 11.2694 -6.93781 -0.347367
rclavicle 4.45278e-014 2.22639e-014
rhumerus -17.8503 11.0711 -69.1287
rradius 98.5399
rwrist -12.8309
rhand -20.663 328.21
rfingers 7.12502
rthumb 5.69969 -61.6931
lclavicle 4.45278e-014 2.22639e-014
lhumerus 19.5273 -33.457 27.1501
lradius 100.609
lwrist 22.6181
lhand 6.53386 3.55345
lfingers 7.12502
lthumb 31.8319 30.793
rfemur -0.388276 -3.83212 6.2498
rtibia 0
rfoot -18.7907 -18.494
rtoes -5.33697
lfemur -20.1496 -2.30571 -20.5277
ltibia 26.1017
lfoot -13.2052 -1.71665
ltoes -54.7103
